# xmcd
#
# Track frame offsets:
#	150
#	17279
#	39099
#	59993
#	82193
#	98217
#	113702
#	144477
#	163010
#	182476
#	204579
#	231084
#	252513
#	268315
#	282197
#
# Disc length: 4080 seconds
#
# Revision: 2
# Processed by: cddbd v1.5.1PL2 Copyright (c) Steve Scherf et al.
# Submitted via: AudioConverter v4.5 Copyright (c) AC Productions Ltd
#
DISCID=d40fee0f
DTITLE=Various Artist - Singers&Songwriters - Once Upon A Time In The Wes
DYEAR=2004
DGENRE=Country
TTITLE0=Tal Bachmann - She's so high
TTITLE1=Blues Traveler - Hook
TTITLE2=Marc Cohn - Silver Thunderbird
TTITLE3=Allman Brothers Band - Ramblin' Man
TTITLE4=Lonestar - What About Now
TTITLE5=Billy Dean - We Just Disagree
TTITLE6=ZZ Top - Sure Got Cold After The Rain Fell
TTITLE7=The Outlaws - Hurry Sundown
TTITLE8=Poco - Call It Love
TTITLE9=Richie Sambora - Stranger In This Town
TTITLE10=Lynyrd Skynyrd - That Smell
TTITLE11=Bruce Hornsby - The Valley Road
TTITLE12=Brooks and Dunn - My Maria
TTITLE13=The Highwaymen - Highwayman
TTITLE14=Lee Clayton - I Ride Alone
EXTD=CD 1
EXTT0=1999
EXTT1=1994
EXTT2=1991
EXTT3=1973
EXTT4=1999
EXTT5=1993
EXTT6=1972
EXTT7=1977
EXTT8=1989
EXTT9=1991
EXTT10=1976
EXTT11=1988
EXTT12=1996
EXTT13=1985
EXTT14=1978
PLAYORDER=
